<svg width="15" height="15" viewBox="0 0 15 15" fill="none" xmlns="http://www.w3.org/2000/svg">
<path fill-rule="evenodd" clip-rule="evenodd" d="M4.37355 0.790003C4.42167 0.565975 4.54527 0.365267 4.72366 0.221462C4.90205 0.0776561 5.12442 -0.000523925 5.35355 2.64264e-06H8.36355C8.59269 -0.000523925 8.81506 0.0776561 8.99345 0.221462C9.17184 0.365267 9.29543 0.565975 9.34355 0.790003C9.41049 1.09266 9.54519 1.37621 9.73752 1.6193C9.92985 1.86239 10.1748 2.0587 10.454 2.19346C10.7331 2.32822 11.0392 2.39793 11.3491 2.39733C11.6591 2.39673 11.9649 2.32584 12.2436 2.19C12.3728 2.12736 12.5141 2.09331 12.6577 2.09017C12.8014 2.08703 12.944 2.11488 13.0759 2.17181C13.2078 2.22875 13.3259 2.31344 13.4221 2.42012C13.5183 2.52679 13.5905 2.65295 13.6336 2.79L14.0036 4.02C14.0438 4.15408 14.0555 4.29513 14.0379 4.43401C14.0202 4.57289 13.9735 4.70651 13.901 4.82623C13.8284 4.94594 13.7315 5.04908 13.6165 5.12897C13.5015 5.20887 13.3711 5.26372 13.2336 5.29C12.606 5.40965 12.0371 5.73741 11.6188 6.22031C11.2005 6.70321 10.9572 7.31304 10.9283 7.95126C10.8994 8.58948 11.0866 9.21881 11.4595 9.73754C11.8324 10.2563 12.3694 10.6341 12.9836 10.81C13.1116 10.8456 13.2313 10.9065 13.3356 10.9889C13.4399 11.0713 13.5267 11.1738 13.591 11.2901C13.6552 11.4065 13.6956 11.5346 13.7098 11.6668C13.724 11.7989 13.7117 11.9326 13.6736 12.06L13.2536 13.41C13.2049 13.5678 13.1179 13.7111 13.0003 13.8272C12.8827 13.9432 12.7383 14.0282 12.5798 14.0748C12.4213 14.1213 12.2538 14.1279 12.0922 14.0939C11.9305 14.0599 11.7799 13.9864 11.6536 13.88C11.3711 13.6426 11.0423 13.4666 10.6882 13.3631C10.334 13.2596 9.96216 13.2309 9.59631 13.2789C9.23046 13.3268 8.87859 13.4504 8.56307 13.6417C8.24755 13.833 7.97527 14.0878 7.76355 14.39C7.6714 14.522 7.54872 14.6299 7.40596 14.7043C7.26319 14.7788 7.10456 14.8176 6.94355 14.8176C6.78254 14.8176 6.62391 14.7788 6.48115 14.7043C6.33838 14.6299 6.21571 14.522 6.12355 14.39C5.91878 14.0944 5.6562 13.8434 5.35169 13.6522C5.04718 13.4609 4.70705 13.3334 4.35187 13.2774C3.99668 13.2213 3.63381 13.2378 3.28519 13.3259C2.93657 13.414 2.60944 13.5719 2.32355 13.79C2.19636 13.8853 2.0483 13.9488 1.89164 13.9754C1.73498 14.002 1.57423 13.9909 1.42272 13.943C1.27121 13.8952 1.13329 13.8118 1.02039 13.7C0.907501 13.5882 0.822883 13.4511 0.773552 13.3L0.273553 11.7C0.1961 11.4545 0.216284 11.1886 0.329904 10.9577C0.443524 10.7267 0.641829 10.5485 0.883552 10.46C1.41962 10.2622 1.87977 9.90053 2.19871 9.42641C2.51765 8.95229 2.67917 8.38977 2.66035 7.81866C2.64154 7.24756 2.44334 6.69689 2.09389 6.24479C1.74444 5.79269 1.26148 5.46213 0.713552 5.3C0.587274 5.26225 0.469705 5.1999 0.367605 5.11655C0.265506 5.0332 0.18089 4.93049 0.118625 4.81432C0.0563597 4.69816 0.0176728 4.57083 0.00478913 4.43966C-0.00809456 4.30849 0.00507908 4.17606 0.0435525 4.05L0.393553 2.92C0.433051 2.79094 0.498266 2.67122 0.585268 2.56803C0.672271 2.46485 0.77926 2.38035 0.899791 2.31962C1.02032 2.25888 1.1519 2.22318 1.2866 2.21465C1.4213 2.20612 1.55633 2.22495 1.68355 2.27C1.95743 2.3694 2.24935 2.40927 2.53986 2.38696C2.83036 2.36465 3.11277 2.28067 3.36826 2.14062C3.62375 2.00057 3.84646 1.80767 4.02153 1.57478C4.1966 1.34189 4.32002 1.07435 4.38355 0.790003H4.37355ZM1.60355 3.29C2.00039 3.39389 2.41411 3.41665 2.81996 3.35693C3.2258 3.29721 3.61543 3.15624 3.96553 2.94245C4.31562 2.72866 4.619 2.44644 4.85749 2.11268C5.09599 1.77892 5.26471 1.40048 5.35355 1H8.36355C8.4607 1.45133 8.65936 1.87461 8.94448 2.23772C9.22959 2.60083 9.59366 2.89424 10.0091 3.09568C10.4245 3.29711 10.8803 3.40129 11.342 3.40031C11.8036 3.39933 12.259 3.29321 12.6736 3.09L13.0536 4.31C12.1998 4.46445 11.4238 4.90417 10.8526 5.55718C10.2814 6.21018 9.94884 7.03777 9.90934 7.90445C9.86984 8.77113 10.1258 9.62554 10.6352 10.3278C11.1446 11.0301 11.8774 11.5385 12.7136 11.77L12.3036 13.12C11.9161 12.7891 11.4636 12.5431 10.9751 12.3981C10.4866 12.2531 9.97316 12.2123 9.46792 12.2783C8.96268 12.3443 8.47692 12.5156 8.04208 12.7812C7.60723 13.0467 7.23298 13.4007 6.94355 13.82C6.46955 13.1521 5.78679 12.6608 5.00285 12.4236C4.2189 12.1865 3.37833 12.2168 2.61355 12.51C2.30355 12.63 2.00355 12.8 1.72355 13.01L1.22355 11.4C1.81321 11.1891 2.33969 10.8319 2.75366 10.362C3.16763 9.89207 3.45555 9.32477 3.59045 8.71322C3.72535 8.10166 3.70282 7.46588 3.52496 6.86541C3.34711 6.26494 3.01975 5.71944 2.57355 5.28C2.13718 4.84016 1.59734 4.51694 1.00355 4.34L1.35355 3.22L1.60355 3.29Z" fill="black"/>
</svg>
